<?xml version="1.0" standalone="no"?>
<!DOCTYPE svg PUBLIC "-//W3C//DTD SVG 20010904//EN"
 "http://www.w3.org/TR/2001/REC-SVG-20010904/DTD/svg10.dtd">
<svg version="1.0" xmlns="http://www.w3.org/2000/svg"
 width="400.000000pt" height="400.000000pt" viewBox="0 0 400.000000 400.000000"
 preserveAspectRatio="xMidYMid meet">
<rect width="100%" height="100%" fill="#FFFFFF"/>
<g fill="#1f2937" transform="translate(0.000000,400.000000) scale(0.100000,-0.100000)">
<path stroke="white" d="M0 2000 l0 -2000 2000 0 2000 0 0 2000 0 2000 -2000 0 -2000 0 0
-2000z m3150 1575 c11 -13 -14 -70 -158 -363 -133 -269 -177 -351 -199 -364
-26 -17 -82 -18 -770 -18 -500 0 -751 3 -770 11 -15 5 -41 22 -57 37 -28 27
-346 648 -346 676 0 8 8 20 18 25 11 7 397 10 1143 11 1003 0 1128 -2 1139
-15z m-257 -1022 c36 -28 386 -445 504 -601 79 -103 136 -221 170 -348 36
-136 38 -335 5 -467 -83 -331 -347 -602 -677 -694 l-100 -28 -800 0 -800 0
-90 28 c-191 59 -341 158 -472 309 -291 338 -300 879 -19 1223 212 259 493
582 514 592 20 9 236 12 878 13 l851 0 36 -27z"/>
<path  stroke="white" d="M1965 2178 c-6 -17 -125 -1237 -125 -1283 0 -29 4 -36 25 -41 32 -8
152 -1 162 10 10 9 152 1296 146 1313 -7 18 -202 18 -208 1z" />
<path  stroke="white" d="M1352 1777 c-199 -200 -262 -269 -262 -287 0 -19 62 -86 258 -282
157 -158 265 -258 277 -258 19 0 135 116 135 135 0 6 -88 98 -195 205 -107
107 -195 202 -195 210 0 8 88 103 195 210 107 107 195 202 195 210 0 21 -104
120 -127 120 -11 0 -125 -107 -281 -263z"/>
<path stroke="white" d="M2272 1976 c-36 -38 -49 -59 -46 -73 3 -11 91 -105 195 -209 104
-104 189 -195 189 -203 0 -8 -88 -103 -195 -211 -107 -107 -195 -202 -195
-211 0 -16 109 -129 125 -129 5 0 130 120 277 267 177 176 268 274 268 288 0
14 -88 108 -258 278 -203 202 -263 257 -283 257 -18 0 -41 -16 -77 -54z"/>
</g>
</svg>
